<svg width="51" height="41" viewBox="0 0 51 41" fill="none" xmlns="http://www.w3.org/2000/svg">
<path fill-rule="evenodd" clip-rule="evenodd" d="M25.2959 19.448C22.667 19.448 20.5359 21.5791 20.5359 24.208C20.5359 26.8369 22.667 28.968 25.2959 28.968C27.9248 28.968 30.0559 26.8369 30.0559 24.208C30.0559 21.5791 27.9248 19.448 25.2959 19.448ZM22.4399 24.208C22.4399 22.6307 23.7186 21.352 25.2959 21.352C26.8732 21.352 28.1519 22.6307 28.1519 24.208C28.1519 25.7853 26.8732 27.064 25.2959 27.064C23.7186 27.064 22.4399 25.7853 22.4399 24.208Z" fill="#162320"/>
<path d="M21.4879 30.872C20.2255 30.872 19.0147 31.3735 18.1221 32.2662C17.2294 33.1588 16.7279 34.3696 16.7279 35.632V37.536C16.7279 38.0618 17.1541 38.488 17.6799 38.488C18.2057 38.488 18.6319 38.0618 18.6319 37.536V35.632C18.6319 34.8745 18.9328 34.1481 19.4684 33.6125C20.004 33.0769 20.7304 32.776 21.4879 32.776H29.1039C29.8614 32.776 30.5878 33.0769 31.1234 33.6125C31.659 34.1481 31.9599 34.8745 31.9599 35.632V37.536C31.9599 38.0618 32.3861 38.488 32.9119 38.488C33.4377 38.488 33.8639 38.0618 33.8639 37.536V35.632C33.8639 34.3696 33.3624 33.1588 32.4697 32.2662C31.5771 31.3735 30.3663 30.872 29.1039 30.872H21.4879Z" fill="#162320"/>
<path fill-rule="evenodd" clip-rule="evenodd" d="M11.424 11.288C8.79508 11.288 6.66396 13.4191 6.66396 16.048C6.66396 18.6769 8.79508 20.808 11.424 20.808C14.0528 20.808 16.184 18.6769 16.184 16.048C16.184 13.4191 14.0528 11.288 11.424 11.288ZM8.56796 16.048C8.56796 14.4707 9.84663 13.192 11.424 13.192C13.0013 13.192 14.28 14.4707 14.28 16.048C14.28 17.6253 13.0013 18.904 11.424 18.904C9.84663 18.904 8.56796 17.6253 8.56796 16.048Z" fill="#162320"/>
<path d="M7.61596 22.712C6.35353 22.712 5.1428 23.2135 4.25013 24.1062C3.35746 24.9988 2.85596 26.2096 2.85596 27.472V29.376C2.85596 29.9018 3.28218 30.328 3.80796 30.328C4.33373 30.328 4.75996 29.9018 4.75996 29.376V27.472C4.75996 26.7145 5.06086 25.9881 5.59646 25.4525C6.13206 24.9169 6.8585 24.616 7.61596 24.616H15.232C15.9894 24.616 16.7158 24.9169 17.2515 25.4525C17.7871 25.9881 18.088 26.7145 18.088 27.472V29.376C18.088 29.9018 18.5142 30.328 19.04 30.328C19.5657 30.328 19.992 29.9018 19.992 29.376V27.472C19.992 26.2096 19.4905 24.9988 18.5978 24.1062C17.7051 23.2135 16.4944 22.712 15.232 22.712H7.61596Z" fill="#162320"/>
<path fill-rule="evenodd" clip-rule="evenodd" d="M39.5761 11.288C36.9472 11.288 34.8161 13.4191 34.8161 16.048C34.8161 18.6769 36.9472 20.808 39.5761 20.808C42.2049 20.808 44.3361 18.6769 44.3361 16.048C44.3361 13.4191 42.2049 11.288 39.5761 11.288ZM36.7201 16.048C36.7201 14.4707 37.9987 13.192 39.5761 13.192C41.1534 13.192 42.4321 14.4707 42.4321 16.048C42.4321 17.6253 41.1534 18.904 39.5761 18.904C37.9987 18.904 36.7201 17.6253 36.7201 16.048Z" fill="#162320"/>
<path d="M35.7681 22.712C34.5056 22.712 33.2949 23.2135 32.4022 24.1062C31.5096 24.9988 31.0081 26.2096 31.0081 27.472V29.376C31.0081 29.9018 31.4343 30.328 31.9601 30.328C32.4858 30.328 32.9121 29.9018 32.9121 29.376V27.472C32.9121 26.7145 33.213 25.9881 33.7486 25.4525C34.2842 24.9169 35.0106 24.616 35.7681 24.616H43.3841C44.1415 24.616 44.8679 24.9169 45.4035 25.4525C45.9392 25.9881 46.2401 26.7145 46.2401 27.472V29.376C46.2401 29.9018 46.6663 30.328 47.1921 30.328C47.7178 30.328 48.1441 29.9018 48.1441 29.376V27.472C48.1441 26.2096 47.6426 24.9988 46.7499 24.1062C45.8572 23.2135 44.6465 22.712 43.3841 22.712H35.7681Z" fill="#162320"/>
<path fill-rule="evenodd" clip-rule="evenodd" d="M26.1119 1.904C23.4831 1.904 21.3519 4.03512 21.3519 6.664C21.3519 9.29287 23.4831 11.424 26.1119 11.424C28.7408 11.424 30.8719 9.29287 30.8719 6.664C30.8719 4.03512 28.7408 1.904 26.1119 1.904ZM23.2559 6.664C23.2559 5.08667 24.5346 3.808 26.1119 3.808C27.6893 3.808 28.9679 5.08667 28.9679 6.664C28.9679 8.24132 27.6893 9.52 26.1119 9.52C24.5346 9.52 23.2559 8.24132 23.2559 6.664Z" fill="#162320"/>
<path d="M22.3039 13.328C21.0415 13.328 19.8308 13.8295 18.9381 14.7222C18.0454 15.6148 17.5439 16.8256 17.5439 18.088V19.992C17.5439 20.5178 17.9702 20.944 18.4959 20.944C19.0217 20.944 19.4479 20.5178 19.4479 19.992V18.088C19.4479 17.3305 19.7488 16.6041 20.2844 16.0685C20.8201 15.5329 21.5465 15.232 22.3039 15.232H29.9199C30.6774 15.232 31.4038 15.5329 31.9394 16.0685C32.475 16.6041 32.7759 17.3305 32.7759 18.088V19.992C32.7759 20.5178 33.2022 20.944 33.7279 20.944C34.2537 20.944 34.6799 20.5178 34.6799 19.992V18.088C34.6799 16.8256 34.1784 15.6148 33.2858 14.7222C32.3931 13.8295 31.1824 13.328 29.9199 13.328H22.3039Z" fill="#162320"/>
</svg>
