<svg width="136" height="38" viewBox="0 0 136 38" fill="none" xmlns="http://www.w3.org/2000/svg">
<path d="M22.4 30.2C21.5467 30.2 20.76 30 20.04 29.6C19.3467 29.2 18.7733 28.6533 18.32 27.96C16.5333 28.8933 14.56 29.36 12.4 29.36C10.2133 29.36 8.21333 28.9333 6.4 28.08C4.58667 27.2 3.14667 26.0133 2.08 24.52C1.04 23.0267 0.52 21.4 0.52 19.64V10.32C0.52 8.56 1.04 6.94667 2.08 5.48C3.14667 3.98667 4.58667 2.81333 6.4 1.96C8.21333 1.08 10.2133 0.639998 12.4 0.639998C14.5867 0.639998 16.5867 1.08 18.4 1.96C20.24 2.81333 21.68 3.98667 22.72 5.48C23.7867 6.94667 24.32 8.56 24.32 10.32V19.64C24.32 20.76 24.1067 21.8267 23.68 22.84C23.28 23.8533 22.6667 24.76 21.84 25.56C22.2133 26.04 22.7067 26.4133 23.32 26.68C23.96 26.9467 24.6133 27.0533 25.28 27C25.28 28.12 25.0533 28.9333 24.6 29.44C24.1467 29.9467 23.4133 30.2 22.4 30.2ZM18.48 21.36C18.8267 20.9067 19 20.32 19 19.6V10.44C19 8.89333 18.4 7.65333 17.2 6.72C16 5.76 14.4 5.28 12.4 5.28C10.4267 5.28 8.84 5.76 7.64 6.72C6.44 7.65333 5.84 8.89333 5.84 10.44V17.32C6.82667 17.0533 7.69333 16.92 8.44 16.92C10.5733 16.92 12.4133 17.24 13.96 17.88C15.5333 18.52 17.04 19.68 18.48 21.36ZM12.4 24.76C13.4667 24.76 14.5333 24.5733 15.6 24.2C14.5333 22.8133 13.44 21.8933 12.32 21.44C11.2267 20.9867 9.82667 20.76 8.12 20.76C7.58667 20.76 6.92 20.8667 6.12 21.08C6.52 22.1733 7.26667 23.0667 8.36 23.76C9.48 24.4267 10.8267 24.76 12.4 24.76Z" fill="#165A4A"/>
<path d="M38.2125 28C39.8125 28 41.1325 27.6267 42.1725 26.88C43.2392 26.1067 43.7725 24.9067 43.7725 23.28C43.7725 22.08 43.4125 21.08 42.6925 20.28C41.9992 19.48 40.7458 18.8133 38.9325 18.28L35.2125 17.16C33.3458 16.6 31.9058 15.64 30.8925 14.28C29.9058 12.8933 29.4125 11.1733 29.4125 9.12C29.4125 7.76 29.7192 6.49333 30.3325 5.32C30.9725 4.14667 31.9325 3.2 33.2125 2.48C34.5192 1.76 36.1592 1.4 38.1325 1.4C40.2925 1.4 42.0392 1.8 43.3725 2.6C44.7058 3.37333 45.6392 4.38666 46.1725 5.64C46.7058 6.89333 46.8392 8.24 46.5725 9.68L41.9725 10.52C42.3992 8.04 42.2125 6.13333 41.4125 4.8C40.6392 3.46667 39.3725 2.8 37.6125 2.8C36.2525 2.8 35.1592 3.2 34.3325 4C33.5325 4.8 33.1325 5.94667 33.1325 7.44C33.1325 8.66667 33.4792 9.74667 34.1725 10.68C34.8925 11.6133 36.0658 12.3333 37.6925 12.84L41.4125 13.96C43.4392 14.5467 44.9592 15.44 45.9725 16.64C46.9858 17.8133 47.4925 19.4533 47.4925 21.56C47.4925 23.0533 47.1458 24.4 46.4525 25.6C45.7858 26.7733 44.7592 27.7067 43.3725 28.4C42.0125 29.0667 40.3058 29.4 38.2525 29.4C36.7592 29.4 35.3458 29.1867 34.0125 28.76C32.6792 28.3067 31.5592 27.5733 30.6525 26.56C29.7725 25.5467 29.2125 24.1733 28.9725 22.44L31.6525 21.48C31.7858 23.1867 32.1592 24.52 32.7725 25.48C33.4125 26.4133 34.1992 27.0667 35.1325 27.44C36.0925 27.8133 37.1192 28 38.2125 28ZM50.7134 9.84V8.72H58.1534V12.04C58.9268 10.7867 59.7668 9.85333 60.6734 9.24C61.5801 8.62667 62.6601 8.32 63.9134 8.32C66.1534 8.32 67.9268 9.21333 69.2334 11C70.5668 12.76 71.2334 15.24 71.2334 18.44V19.24C71.2334 22.3333 70.4734 24.8 68.9534 26.64C67.4334 28.48 65.3268 29.4 62.6334 29.4C61.0334 29.4 59.6201 29 58.3934 28.2V34.16C58.3934 35.0667 58.4334 35.6 58.5134 35.76C58.5934 35.9467 58.8468 36.0667 59.2734 36.12L62.2734 36.4V37.52H50.7134V36.4L52.9134 36.12C53.3401 36.0667 53.5934 35.9467 53.6734 35.76C53.7534 35.6 53.7934 35.0667 53.7934 34.16V12.08C53.7934 11.1733 53.7534 10.64 53.6734 10.48C53.5934 10.2933 53.3401 10.1733 52.9134 10.12L50.7134 9.84ZM62.8734 10.08C62.2068 10.08 61.5001 10.36 60.7534 10.92C60.0334 11.4533 59.2468 12.56 58.3934 14.24V26.32C59.4068 27.3333 60.6468 27.84 62.1134 27.84C63.6068 27.84 64.6734 27.1867 65.3134 25.88C65.9801 24.5467 66.3134 22.7333 66.3134 20.44V17.24C66.3134 14.76 66.0068 12.9467 65.3934 11.8C64.7801 10.6533 63.9401 10.08 62.8734 10.08ZM95.1919 28C94.7652 28.4 94.2452 28.7333 93.6319 29C93.0452 29.2667 92.3252 29.4 91.4719 29.4C90.3785 29.4 89.4585 29.16 88.7119 28.68C87.9919 28.2 87.5119 27.52 87.2719 26.64C86.3919 27.6 85.4185 28.3067 84.3519 28.76C83.3119 29.1867 82.2452 29.4 81.1519 29.4C79.3119 29.4 77.9385 28.8933 77.0319 27.88C76.1252 26.84 75.6719 25.5467 75.6719 24C75.6719 22.4267 76.2452 21.16 77.3919 20.2C78.5385 19.2133 80.5652 18.72 83.4719 18.72H87.1119V15.48C87.1119 13.2667 86.8185 11.76 86.2319 10.96C85.6719 10.1333 84.8852 9.72 83.8719 9.72C83.2052 9.72 82.5919 9.89333 82.0319 10.24C81.4719 10.56 81.0719 11.1733 80.8319 12.08C80.6185 12.96 80.6585 14.24 80.9519 15.92L76.5519 15.28C76.3385 14.0533 76.4719 12.92 76.9519 11.88C77.4585 10.8133 78.2985 9.96 79.4719 9.32C80.6452 8.65333 82.1385 8.32 83.9519 8.32C86.0052 8.32 87.5919 8.65333 88.7119 9.32C89.8319 9.98667 90.6052 10.8667 91.0319 11.96C91.4852 13.0533 91.7119 14.2267 91.7119 15.48V24.72C91.7119 26.08 91.8319 26.9333 92.0719 27.28C92.3119 27.6267 92.5785 27.8 92.8719 27.8C93.3519 27.8 93.8852 27.52 94.4719 26.96L95.1919 28ZM82.9119 27.28C83.6052 27.28 84.2852 27.1067 84.9519 26.76C85.6452 26.3867 86.3652 25.7067 87.1119 24.72V20.12H84.1119C82.8052 20.12 81.8585 20.4267 81.2719 21.04C80.6852 21.6533 80.3919 22.6133 80.3919 23.92C80.3919 24.9867 80.6052 25.8133 81.0319 26.4C81.4585 26.9867 82.0852 27.28 82.9119 27.28ZM106.635 9.72C105.355 9.72 104.395 10.3333 103.755 11.56C103.142 12.76 102.835 14.7867 102.835 17.64V20.04C102.835 22.8667 103.195 24.9067 103.915 26.16C104.635 27.3867 105.809 28 107.435 28C108.635 28 109.609 27.6667 110.355 27C111.129 26.3067 111.569 25.1467 111.675 23.52L114.235 24.24C113.755 26.1067 112.875 27.44 111.595 28.24C110.342 29.0133 108.862 29.4 107.155 29.4C104.089 29.4 101.782 28.48 100.235 26.64C98.6886 24.7733 97.9153 22.3067 97.9153 19.24V18.44C97.9153 15.3733 98.662 12.92 100.155 11.08C101.649 9.24 103.809 8.32 106.635 8.32C108.502 8.32 110.022 8.69333 111.195 9.44C112.395 10.16 113.235 11.12 113.715 12.32C114.222 13.4933 114.355 14.76 114.115 16.12L109.715 16.76C110.009 14.52 109.889 12.7867 109.355 11.56C108.822 10.3333 107.915 9.72 106.635 9.72ZM135.273 24.24C134.793 26.1067 133.899 27.44 132.593 28.24C131.286 29.0133 129.766 29.4 128.033 29.4C124.833 29.4 122.433 28.48 120.833 26.64C119.233 24.7733 118.433 22.3067 118.433 19.24V18.44C118.433 15.3733 119.179 12.92 120.673 11.08C122.193 9.24 124.379 8.32 127.233 8.32C128.833 8.32 130.246 8.64 131.473 9.28C132.726 9.89333 133.699 10.7867 134.393 11.96C135.113 13.1333 135.473 14.56 135.473 16.24C135.473 16.64 135.446 17.0667 135.393 17.52C135.366 17.9733 135.299 18.4267 135.193 18.88H123.353V20.04C123.353 22.8667 123.753 24.9067 124.553 26.16C125.353 27.3867 126.646 28 128.433 28C129.579 28 130.553 27.6667 131.353 27C132.153 26.3067 132.606 25.1467 132.713 23.52L135.273 24.24ZM127.233 9.72C125.926 9.72 124.953 10.32 124.313 11.52C123.673 12.72 123.353 14.7067 123.353 17.48H130.593C130.699 16.9467 130.766 16.4533 130.793 16C130.846 15.52 130.873 15.08 130.873 14.68C130.873 12.9733 130.539 11.72 129.873 10.92C129.206 10.12 128.326 9.72 127.233 9.72Z" fill="#82B9AE"/>
</svg>
